# xmcd
#
# Track frame offsets: 
#        150
#        11931
#        21096
#        31980
#        40634
#        51533
#        62441
#        72902
#        83170
#        92624
#        101096
#        113087
#        121656
#        131234
#        141658
#        151332
#        161964
#        170127
#        180375
#        189614
#        199635
#        208154
#        217408
#        227316
#        238441
#        247082
#        256019
#        264990
#
# Disc length: 3654 seconds
#
# Revision: 0
# Processed by: cddbd v1.5.2PL0 Copyright (c) Steve Scherf et al.
# Submitted via: ExactAudioCopy v0.99pb3
#
DISCID=9d0e441c
DTITLE=Fats Domino - All By Myself
DYEAR=2008
DGENRE=R&B
TTITLE0=The Fat Man
TTITLE1=Where Did You Stay
TTITLE2=You Can Pack Your Suitcase
TTITLE3=Love Me
TTITLE4=Don't You Know
TTITLE5=Ain't It A Shame
TTITLE6=All By Myself
TTITLE7=Poor Me
TTITLE8=I Can't Go On (Rosalie)
TTITLE9=Bo Weevil
TTITLE10=Don't Blame It On Me
TTITLE11=I'm In Love Again
TTITLE12=My Blue Heaven
TTITLE13=When My Dreamboat Comes Home
TTITLE14=So Long
TTITLE15=Blueberry Hill
TTITLE16=Honey Chile
TTITLE17=Blue Monday
TTITLE18=What's The Reason I'm Not Pleasing You
TTITLE19=I'm Walkin
TTITLE20=Valley Of Tears
TTITLE21=It's You I Love
TTITLE22=When I See You
TTITLE23=What Will I Tell My Heart
TTITLE24=Wait And See
TTITLE25=I Still Love You
TTITLE26=The Big Beat
TTITLE27=I Want You To Know
EXTD=
EXTT0=
EXTT1=
EXTT2=
EXTT3=
EXTT4=
EXTT5=
EXTT6=
EXTT7=
EXTT8=
EXTT9=
EXTT10=
EXTT11=
EXTT12=
EXTT13=
EXTT14=
EXTT15=
EXTT16=
EXTT17=
EXTT18=
EXTT19=
EXTT20=
EXTT21=
EXTT22=
EXTT23=
EXTT24=
EXTT25=
EXTT26=
EXTT27=
PLAYORDER=
